<svg xmlns="http://www.w3.org/2000/svg" viewBox="0 0 343 249">
  <path d="M 207.17,183.42 L 207.21,183.46 L 207.29,183.48 L 207.46,183.49 L 207.68,183.50 L 208.07,183.50 L 208.29,183.49 L 208.46,183.48 L 208.54,183.46 L 208.58,183.42 L 208.62,183.40 L 208.66,183.38 L 208.71,183.38 L 208.79,183.38 L 208.84,183.37 L 208.88,183.35 L 208.92,183.33 L 208.96,183.29 L 208.98,183.27 L 208.99,183.23 L 209.00,183.21 L 209.00,183.17 L 208.99,183.13 L 208.96,183.09 L 208.91,183.04 L 208.84,182.96 L 208.76,182.92 L 208.63,182.89 L 208.49,182.88 L 208.26,182.88 L 208.12,182.88 L 208.01,182.90 L 207.96,182.92 L 207.92,182.96 L 207.89,182.98 L 207.86,182.99 L 207.83,183.00 L 207.79,183.00 L 207.75,183.01 L 207.69,183.04 L 207.62,183.09 L 207.50,183.16 L 207.43,183.21 L 207.35,183.24 L 207.29,183.25 L 207.21,183.25 L 207.17,183.26 L 207.14,183.27 L 207.12,183.29 L 207.12,183.33 L 207.13,183.36 L 207.15,183.39 Z M 227.79,182.75 L 224.96,182.75 L 223.14,182.77 L 221.32,182.81 L 219.90,182.88 L 218.10,183.00 L 216.88,183.05 L 215.57,183.06 L 214.45,183.04 L 212.92,182.96 L 212.03,182.94 L 211.27,182.95 L 210.82,183.00 L 210.43,183.12 L 210.21,183.20 L 210.04,183.30 L 209.96,183.38 L 209.92,183.50 L 209.97,183.63 L 210.14,183.86 L 210.39,184.14 L 210.86,184.61 L 211.21,184.86 L 211.65,185.01 L 212.06,185.04 L 212.69,184.96 L 213.76,184.91 L 215.85,184.84 L 218.52,184.79 L 223.23,184.71 L 225.86,184.65 L 227.86,184.57 L 228.80,184.50 L 229.20,184.38 L 229.46,184.27 L 229.76,184.10 L 230.01,183.91 L 230.36,183.59 L 230.56,183.40 L 230.72,183.21 L 230.79,183.08 L 230.83,182.92 L 230.42,182.84 L 229.32,182.77 Z M 247.81,182.00 L 244.44,182.00 L 242.52,182.02 L 241.01,182.06 L 240.24,182.13 L 239.76,182.25 L 239.27,182.31 L 238.46,182.36 L 237.53,182.38 L 235.97,182.38 L 235.01,182.39 L 234.15,182.42 L 233.56,182.46 L 232.94,182.54 L 232.95,182.59 L 233.61,182.63 L 234.78,182.67 L 237.09,182.71 L 238.38,182.72 L 239.35,182.70 L 239.80,182.66 L 239.95,182.59 L 240.49,182.54 L 241.71,182.49 L 243.34,182.46 L 246.28,182.42 L 247.99,182.38 L 249.39,182.32 L 250.19,182.25 L 250.81,182.13 L 250.64,182.06 L 249.56,182.02 Z M 181.97,180.62 L 182.28,180.62 L 182.46,180.63 L 182.60,180.65 L 182.67,180.67 L 182.71,180.71 L 183.04,180.73 L 183.84,180.74 L 184.94,180.75 L 186.94,180.75 L 188.04,180.74 L 188.84,180.73 L 189.17,180.71 L 189.21,180.67 L 189.28,180.65 L 189.44,180.63 L 189.64,180.62 L 189.99,180.62 L 190.19,180.62 L 190.34,180.60 L 190.42,180.58 L 190.46,180.54 L 190.61,180.52 L 190.97,180.51 L 191.44,180.50 L 192.31,180.50 L 192.79,180.49 L 193.16,180.48 L 193.34,180.46 L 193.41,180.42 L 193.44,180.39 L 193.44,180.36 L 193.41,180.33 L 193.34,180.29 L 193.20,180.27 L 192.94,180.26 L 192.61,180.25 L 192.02,180.25 L 191.69,180.26 L 191.44,180.27 L 191.33,180.29 L 191.29,180.33 L 191.27,180.35 L 191.23,180.35 L 191.21,180.33 L 191.17,180.29 L 191.10,180.27 L 190.96,180.26 L 190.78,180.25 L 190.47,180.25 L 190.29,180.26 L 190.15,180.27 L 190.08,180.29 L 190.04,180.33 L 189.99,180.35 L 189.88,180.37 L 189.74,180.38 L 189.51,180.38 L 189.37,180.37 L 189.26,180.35 L 189.21,180.33 L 189.17,180.29 L 188.92,180.27 L 188.32,180.26 L 187.49,180.25 L 186.01,180.25 L 185.15,180.26 L 184.48,180.29 L 184.12,180.34 L 183.88,180.41 L 183.67,180.46 L 183.36,180.49 L 183.02,180.50 L 182.48,180.50 L 182.16,180.51 L 181.92,180.52 L 181.79,180.54 L 181.71,180.58 L 181.72,180.60 L 181.81,180.62 Z M 286.58,180.33 L 286.54,180.29 L 286.47,180.27 L 286.33,180.26 L 286.16,180.25 L 285.84,180.25 L 285.67,180.24 L 285.53,180.23 L 285.46,180.21 L 285.42,180.17 L 285.38,180.15 L 285.32,180.13 L 285.25,180.12 L 285.13,180.12 L 285.06,180.13 L 285.00,180.15 L 284.96,180.17 L 284.92,180.21 L 284.83,180.23 L 284.65,180.24 L 284.40,180.25 L 283.97,180.25 L 283.73,180.26 L 283.55,180.27 L 283.46,180.29 L 283.42,180.33 L 283.35,180.35 L 283.23,180.37 L 283.07,180.38 L 282.80,180.38 L 282.64,180.38 L 282.52,180.40 L 282.46,180.42 L 282.42,180.46 L 282.37,180.48 L 282.30,180.49 L 282.20,180.50 L 282.05,180.50 L 281.95,180.51 L 281.88,180.52 L 281.83,180.54 L 281.79,180.58 L 281.76,180.60 L 281.71,180.62 L 281.66,180.62 L 281.59,180.62 L 281.54,180.63 L 281.51,180.65 L 281.50,180.67 L 281.50,180.71 L 281.52,180.73 L 281.56,180.74 L 281.63,180.75 L 281.75,180.75 L 281.82,180.76 L 281.88,180.77 L 281.92,180.79 L 281.96,180.83 L 282.11,180.85 L 282.44,180.87 L 282.90,180.88 L 283.72,180.88 L 284.18,180.87 L 284.52,180.85 L 284.67,180.83 L 284.71,180.79 L 284.76,180.77 L 284.87,180.76 L 285.01,180.75 L 285.24,180.75 L 285.38,180.74 L 285.49,180.73 L 285.54,180.71 L 285.58,180.67 L 285.62,180.65 L 285.68,180.63 L 285.75,180.62 L 285.87,180.62 L 285.94,180.62 L 286.00,180.60 L 286.04,180.58 L 286.08,180.54 L 286.12,180.52 L 286.18,180.51 L 286.25,180.50 L 286.37,180.50 L 286.44,180.49 L 286.50,180.48 L 286.54,180.46 L 286.58,180.42 L 286.60,180.39 L 286.60,180.36 Z M 296.21,178.38 L 296.29,178.50 L 296.50,178.57 L 296.94,178.65 L 297.53,178.71 L 298.59,178.79 L 299.21,178.85 L 299.74,178.93 L 300.05,179.00 L 300.32,179.12 L 300.52,179.22 L 300.75,179.36 L 300.97,179.51 L 301.28,179.74 L 301.48,179.94 L 301.66,180.20 L 301.80,180.47 L 301.95,180.90 L 302.06,181.16 L 302.19,181.37 L 302.30,181.50 L 302.45,181.62 L 302.56,181.69 L 302.69,181.73 L 302.80,181.75 L 302.95,181.75 L 303.06,181.73 L 303.19,181.69 L 303.30,181.62 L 303.45,181.50 L 303.55,181.38 L 303.62,181.18 L 303.67,180.95 L 303.71,180.55 L 303.74,180.32 L 303.79,180.10 L 303.84,179.95 L 303.91,179.80 L 303.99,179.69 L 304.10,179.58 L 304.21,179.50 L 304.41,179.38 L 304.74,179.34 L 305.37,179.35 L 306.17,179.42 L 307.58,179.58 L 308.40,179.68 L 309.08,179.79 L 309.47,179.88 L 309.78,180.00 L 310.01,180.12 L 310.29,180.32 L 310.55,180.55 L 310.95,180.95 L 311.21,181.14 L 311.51,181.25 L 311.76,181.25 L 312.11,181.13 L 312.33,181.02 L 312.53,180.87 L 312.67,180.70 L 312.83,180.43 L 312.91,180.23 L 312.98,180.02 L 313.00,179.82 L 313.00,179.55 L 312.96,179.38 L 312.87,179.21 L 312.74,179.08 L 312.51,178.92 L 312.20,178.84 L 311.66,178.77 L 311.01,178.75 L 309.87,178.75 L 309.13,178.72 L 308.39,178.64 L 307.81,178.54 L 307.07,178.34 L 306.50,178.23 L 305.81,178.16 L 305.13,178.12 L 304.12,178.12 L 303.49,178.11 L 302.92,178.06 L 302.53,178.00 L 302.10,177.88 L 301.62,177.82 L 300.83,177.79 L 299.91,177.79 L 298.34,177.83 L 297.46,177.87 L 296.78,177.93 L 296.45,178.00 L 296.30,178.12 L 296.22,178.20 L 296.19,178.30 Z M 294.95,179.93 L 294.68,179.19 L 294.23,178.72 L 293.39,178.28 L 292.32,177.95 L 290.43,177.55 L 285.43,177.47 L 274.57,177.66 L 260.19,178.07 L 234.44,178.93 L 224.40,179.31 L 224.60,179.40 L 234.99,179.19 L 261.26,178.56 L 275.77,178.24 L 286.44,178.06 L 290.99,178.05 L 291.89,178.20 L 292.44,178.43 L 292.93,178.84 L 293.26,179.36 L 293.61,180.26 L 293.87,180.73 L 294.16,181.03 L 294.43,181.08 L 294.82,180.92 L 294.99,180.72 L 295.04,180.37 Z M 179.52,177.50 L 180.11,177.62 L 180.81,177.69 L 182.01,177.73 L 183.45,177.75 L 185.92,177.75 L 187.66,177.73 L 189.62,177.69 L 191.37,177.62 L 193.88,177.50 L 195.43,177.45 L 196.88,177.41 L 197.91,177.42 L 199.09,177.46 L 199.74,177.46 L 200.21,177.43 L 200.42,177.37 L 200.46,177.25 L 200.25,177.20 L 199.68,177.16 L 198.87,177.17 L 197.38,177.21 L 196.37,177.21 L 195.27,177.18 L 194.33,177.12 L 193.04,177.00 L 191.95,176.94 L 190.45,176.89 L 188.88,176.88 L 186.37,176.88 L 184.77,176.90 L 183.20,176.96 L 181.99,177.05 L 180.51,177.20 L 179.78,177.31 L 179.43,177.42 Z M 292.88,175.17 L 292.88,175.21 L 292.88,175.23 L 292.90,175.27 L 292.92,175.29 L 292.96,175.33 L 293.00,175.35 L 293.08,175.37 L 293.17,175.38 L 293.33,175.38 L 293.42,175.38 L 293.50,175.40 L 293.54,175.42 L 293.58,175.46 L 293.61,175.48 L 293.64,175.49 L 293.67,175.50 L 293.71,175.50 L 293.73,175.49 L 293.77,175.48 L 293.79,175.46 L 293.83,175.42 L 293.87,175.40 L 293.91,175.38 L 293.96,175.38 L 294.04,175.38 L 294.08,175.36 L 294.11,175.33 L 294.12,175.29 L 294.12,175.21 L 294.12,175.16 L 294.10,175.12 L 294.08,175.08 L 294.04,175.04 L 293.99,175.02 L 293.88,175.01 L 293.74,175.00 L 293.51,175.00 L 293.37,175.01 L 293.26,175.02 L 293.21,175.04 L 293.17,175.08 L 293.13,175.10 L 293.09,175.12 L 293.04,175.12 L 292.96,175.12 L 292.92,175.13 L 292.89,175.15 Z M 179.02,174.09 L 179.61,174.16 L 180.34,174.22 L 181.62,174.28 L 183.17,174.34 L 185.83,174.41 L 187.72,174.43 L 189.86,174.38 L 191.80,174.29 L 194.58,174.09 L 195.98,173.96 L 196.77,173.84 L 196.77,173.75 L 195.98,173.63 L 195.10,173.56 L 193.64,173.50 L 191.91,173.46 L 188.97,173.42 L 187.04,173.41 L 185.07,173.45 L 183.48,173.50 L 181.40,173.62 L 180.23,173.70 L 179.32,173.77 L 178.87,173.84 L 178.63,173.91 L 178.59,173.97 L 178.73,174.03 Z M 292.27,172.11 L 290.23,171.76 L 288.86,171.62 L 287.39,171.60 L 286.16,171.72 L 284.47,172.03 L 279.80,172.27 L 269.59,172.56 L 256.03,172.85 L 231.72,173.28 L 222.45,173.50 L 223.14,173.64 L 233.65,173.66 L 259.72,173.59 L 274.29,173.49 L 285.30,173.34 L 290.39,173.16 L 292.36,172.84 L 293.11,172.62 L 293.08,172.36 Z M 206.29,170.29 L 206.21,170.21 L 206.16,170.17 L 206.09,170.14 L 206.04,170.12 L 205.96,170.12 L 205.91,170.12 L 205.87,170.10 L 205.83,170.08 L 205.79,170.04 L 205.75,170.02 L 205.69,170.01 L 205.62,170.00 L 205.50,170.00 L 205.43,170.01 L 205.37,170.02 L 205.33,170.04 L 205.29,170.08 L 205.25,170.10 L 205.19,170.12 L 205.12,170.12 L 205.00,170.12 L 204.93,170.13 L 204.87,170.15 L 204.83,170.17 L 204.79,170.21 L 204.76,170.23 L 204.71,170.24 L 204.66,170.25 L 204.59,170.25 L 204.52,170.26 L 204.45,170.29 L 204.37,170.34 L 204.25,170.41 L 204.20,170.46 L 204.19,170.49 L 204.21,170.50 L 204.29,170.50 L 204.34,170.51 L 204.38,170.52 L 204.42,170.54 L 204.46,170.58 L 204.53,170.60 L 204.69,170.62 L 204.89,170.62 L 205.24,170.62 L 205.44,170.62 L 205.59,170.60 L 205.67,170.58 L 205.71,170.54 L 205.75,170.52 L 205.83,170.51 L 205.92,170.50 L 206.08,170.50 L 206.17,170.49 L 206.25,170.48 L 206.29,170.46 L 206.33,170.42 L 206.34,170.38 L 206.33,170.34 Z M 175.88,170.55 L 176.00,170.70 L 176.15,170.78 L 176.41,170.83 L 176.73,170.83 L 177.27,170.79 L 177.61,170.78 L 177.92,170.80 L 178.13,170.84 L 178.37,170.91 L 178.90,170.94 L 180.03,170.94 L 181.50,170.91 L 184.13,170.84 L 185.94,170.81 L 187.92,170.83 L 189.66,170.88 L 192.09,171.00 L 193.63,171.04 L 195.13,171.04 L 196.25,171.00 L 197.62,170.88 L 198.36,170.78 L 198.85,170.66 L 199.00,170.54 L 198.88,170.34 L 198.60,170.24 L 198.02,170.18 L 197.25,170.17 L 195.88,170.21 L 195.08,170.22 L 194.44,170.20 L 194.07,170.16 L 193.80,170.09 L 193.01,170.04 L 191.27,170.01 L 188.95,170.00 L 184.80,170.00 L 182.48,170.02 L 180.74,170.06 L 179.95,170.13 L 179.68,170.25 L 179.44,170.30 L 179.12,170.31 L 178.77,170.29 L 178.23,170.21 L 177.83,170.18 L 177.39,170.18 L 176.98,170.21 L 176.39,170.29 L 176.09,170.36 L 175.91,170.45 Z M 208.88,170.21 L 208.88,170.29 L 208.91,170.35 L 208.98,170.43 L 209.09,170.50 L 209.29,170.62 L 210.31,170.68 L 212.73,170.71 L 216.02,170.71 L 221.98,170.67 L 225.28,170.63 L 227.71,170.57 L 228.76,170.50 L 228.99,170.38 L 229.12,170.30 L 229.21,170.23 L 229.25,170.16 L 229.25,170.09 L 229.19,170.02 L 229.04,169.95 L 228.82,169.87 L 228.43,169.75 L 227.40,169.67 L 225.19,169.56 L 222.25,169.45 L 217.00,169.30 L 214.05,169.22 L 211.80,169.17 L 210.74,169.17 L 210.26,169.21 L 209.97,169.27 L 209.67,169.39 L 209.45,169.55 L 209.18,169.82 L 209.03,169.99 L 208.92,170.13 Z M 310.79,169.34 L 310.71,169.41 L 310.67,169.46 L 310.64,169.51 L 310.62,169.54 L 310.62,169.58 L 310.61,169.62 L 310.58,169.66 L 310.54,169.71 L 310.46,169.79 L 310.42,169.84 L 310.39,169.88 L 310.38,169.92 L 310.38,169.96 L 310.37,169.98 L 310.35,170.02 L 310.33,170.04 L 310.29,170.08 L 310.27,170.14 L 310.26,170.25 L 310.25,170.38 L 310.25,170.62 L 310.26,170.75 L 310.27,170.86 L 310.29,170.92 L 310.33,170.96 L 310.37,170.98 L 310.41,170.99 L 310.46,171.00 L 310.54,171.00 L 310.59,171.01 L 310.63,171.02 L 310.67,171.04 L 310.71,171.08 L 310.78,171.10 L 310.94,171.12 L 311.14,171.12 L 311.49,171.12 L 311.69,171.12 L 311.84,171.10 L 311.92,171.08 L 311.96,171.04 L 312.00,171.02 L 312.06,171.01 L 312.13,171.00 L 312.25,171.00 L 312.33,170.98 L 312.42,170.94 L 312.50,170.87 L 312.62,170.75 L 312.69,170.64 L 312.73,170.47 L 312.75,170.28 L 312.75,169.97 L 312.73,169.77 L 312.66,169.59 L 312.58,169.45 L 312.42,169.30 L 312.33,169.21 L 312.25,169.15 L 312.21,169.12 L 312.17,169.12 L 312.14,169.12 L 312.11,169.10 L 312.08,169.08 L 312.04,169.04 L 311.99,169.02 L 311.88,169.01 L 311.74,169.00 L 311.51,169.00 L 311.37,169.01 L 311.24,169.04 L 311.16,169.09 L 311.09,169.16 L 311.04,169.21 L 310.99,169.24 L 310.96,169.25 L 310.92,169.25 L 310.88,169.26 L 310.84,169.29 Z M 294.96,169.00 L 294.92,169.00 L 294.89,168.99 L 294.86,168.98 L 294.83,168.96 L 294.79,168.92 L 294.75,168.90 L 294.67,168.88 L 294.58,168.88 L 294.42,168.88 L 294.30,168.91 L 294.15,169.00 L 293.99,169.13 L 293.76,169.37 L 293.63,169.50 L 293.54,169.61 L 293.50,169.67 L 293.50,169.71 L 293.48,169.75 L 293.44,169.81 L 293.37,169.88 L 293.25,170.00 L 293.19,170.09 L 293.14,170.21 L 293.12,170.34 L 293.12,170.54 L 293.14,170.65 L 293.17,170.76 L 293.21,170.84 L 293.29,170.91 L 293.34,170.96 L 293.38,170.99 L 293.42,171.00 L 293.46,171.00 L 293.48,171.01 L 293.52,171.02 L 293.54,171.04 L 293.58,171.08 L 293.62,171.10 L 293.68,171.12 L 293.75,171.12 L 293.87,171.12 L 293.94,171.12 L 294.00,171.10 L 294.04,171.08 L 294.08,171.04 L 294.12,171.02 L 294.18,171.01 L 294.25,171.00 L 294.37,171.00 L 294.45,170.99 L 294.55,170.96 L 294.63,170.91 L 294.75,170.84 L 294.81,170.79 L 294.86,170.74 L 294.88,170.71 L 294.88,170.67 L 294.88,170.64 L 294.90,170.61 L 294.92,170.58 L 294.96,170.54 L 294.98,170.52 L 294.99,170.48 L 295.00,170.46 L 295.00,170.42 L 295.01,170.38 L 295.04,170.32 L 295.09,170.25 L 295.16,170.13 L 295.21,170.03 L 295.24,169.89 L 295.25,169.74 L 295.25,169.51 L 295.24,169.37 L 295.21,169.24 L 295.16,169.16 L 295.09,169.09 L 295.04,169.04 L 294.99,169.01 Z M 308.58,171.00 L 308.42,170.88 L 308.14,170.84 L 307.57,170.85 L 306.83,170.92 L 305.54,171.08 L 304.81,171.15 L 304.26,171.16 L 304.00,171.12 L 303.88,171.00 L 303.81,170.85 L 303.77,170.59 L 303.75,170.27 L 303.75,169.73 L 303.72,169.41 L 303.64,169.15 L 303.54,169.00 L 303.34,168.88 L 303.20,168.81 L 303.05,168.77 L 302.91,168.75 L 302.71,168.75 L 302.58,168.78 L 302.44,168.86 L 302.33,168.96 L 302.17,169.16 L 302.09,169.33 L 302.02,169.56 L 302.00,169.80 L 302.00,170.20 L 301.98,170.43 L 301.94,170.65 L 301.87,170.80 L 301.75,170.95 L 301.48,171.05 L 300.91,171.12 L 300.17,171.17 L 298.83,171.21 L 298.06,171.25 L 297.41,171.33 L 297.03,171.42 L 296.72,171.58 L 296.55,171.68 L 296.42,171.79 L 296.38,171.88 L 296.38,172.00 L 296.50,172.06 L 296.80,172.11 L 297.23,172.12 L 298.02,172.12 L 298.57,172.14 L 299.20,172.19 L 299.78,172.25 L 300.60,172.37 L 301.15,172.41 L 301.72,172.40 L 302.19,172.33 L 302.81,172.17 L 303.18,172.10 L 303.49,172.09 L 303.67,172.13 L 303.83,172.25 L 303.97,172.31 L 304.19,172.36 L 304.43,172.38 L 304.82,172.38 L 305.19,172.34 L 305.73,172.27 L 306.32,172.16 L 307.30,171.96 L 307.86,171.85 L 308.29,171.74 L 308.50,171.66 L 308.62,171.59 L 308.69,171.52 L 308.73,171.45 L 308.75,171.37 L 308.75,171.25 L 308.73,171.17 L 308.66,171.08 Z M 170.22,181.69 L 170.65,183.69 L 171.06,185.01 L 171.66,186.38 L 172.33,187.51 L 173.42,188.99 L 174.35,190.01 L 175.59,191.10 L 176.90,192.04 L 178.98,193.33 L 180.49,194.09 L 182.28,194.72 L 183.95,195.09 L 186.42,195.41 L 188.31,195.28 L 190.65,194.63 L 192.94,193.60 L 196.43,191.65 L 198.53,190.27 L 200.38,188.73 L 201.58,187.35 L 202.80,185.40 L 203.51,184.01 L 204.11,182.46 L 204.47,181.06 L 204.78,179.06 L 209.14,177.89 L 219.92,176.90 L 234.81,176.32 L 261.94,175.81 L 272.59,175.60 L 272.57,175.59 L 261.90,175.76 L 234.73,176.24 L 219.81,176.19 L 209.00,175.60 L 204.61,174.60 L 204.26,172.65 L 203.77,171.25 L 202.88,169.64 L 201.77,168.18 L 199.85,166.07 L 198.26,164.73 L 196.14,163.45 L 193.93,162.51 L 190.44,161.37 L 188.16,160.85 L 185.85,160.67 L 184.01,160.85 L 181.62,161.52 L 180.07,162.08 L 178.53,162.83 L 177.33,163.62 L 175.80,164.88 L 174.77,165.90 L 173.70,167.26 L 172.80,168.65 L 171.58,170.85 L 170.89,172.35 L 170.35,173.98 L 170.08,175.40 L 169.92,177.35 L 169.90,178.74 L 170.01,180.29 Z M 186.17,161.71 L 187.70,161.67 L 188.86,161.78 L 190.28,162.10 L 191.65,162.57 L 193.73,163.43 L 195.06,164.10 L 196.39,164.95 L 197.42,165.79 L 198.71,167.08 L 199.43,167.88 L 199.97,168.60 L 200.21,169.10 L 200.29,169.65 L 200.40,170.04 L 200.62,170.49 L 200.89,170.89 L 201.36,171.48 L 201.61,171.89 L 201.78,172.33 L 201.83,172.73 L 201.79,173.27 L 201.81,173.65 L 201.88,174.05 L 202.01,174.39 L 202.24,174.86 L 202.35,175.20 L 202.38,175.58 L 202.33,175.93 L 202.17,176.44 L 202.12,176.79 L 202.13,177.16 L 202.21,177.47 L 202.41,177.90 L 202.51,178.28 L 202.55,178.82 L 202.54,179.40 L 202.46,180.35 L 202.30,181.17 L 201.96,182.32 L 201.52,183.56 L 200.73,185.56 L 200.07,186.87 L 199.18,188.19 L 198.24,189.25 L 196.76,190.62 L 195.63,191.48 L 194.24,192.30 L 192.89,192.90 L 190.86,193.60 L 189.48,193.96 L 188.02,194.18 L 186.78,194.20 L 185.09,194.05 L 183.90,193.83 L 182.54,193.43 L 181.32,192.93 L 179.56,192.07 L 178.36,191.34 L 177.08,190.34 L 175.99,189.28 L 174.51,187.59 L 173.60,186.37 L 172.78,184.94 L 172.23,183.60 L 171.64,181.65 L 171.34,180.35 L 171.16,179.01 L 171.13,177.91 L 171.25,176.46 L 171.43,175.39 L 171.79,174.11 L 172.23,172.90 L 173.02,171.10 L 173.61,169.92 L 174.33,168.74 L 175.03,167.80 L 176.09,166.58 L 176.85,165.81 L 177.71,165.05 L 178.49,164.48 L 179.63,163.77 L 180.43,163.33 L 181.32,162.89 L 182.12,162.57 L 183.26,162.18 L 184.11,161.96 L 185.16,161.79 Z M 76.29,141.67 L 76.33,141.83 L 76.37,141.93 L 76.41,142.02 L 76.46,142.09 L 76.54,142.16 L 76.61,142.21 L 76.72,142.26 L 76.84,142.29 L 77.04,142.33 L 77.15,142.36 L 77.24,142.39 L 77.29,142.42 L 77.33,142.46 L 77.69,142.48 L 78.55,142.52 L 79.73,142.54 L 81.89,142.58 L 83.08,142.60 L 83.96,142.60 L 84.34,142.58 L 84.41,142.54 L 84.47,142.50 L 84.53,142.44 L 84.59,142.37 L 84.66,142.25 L 84.71,142.16 L 84.74,142.04 L 84.75,141.91 L 84.75,141.71 L 84.74,141.60 L 84.73,141.49 L 84.71,141.41 L 84.67,141.34 L 84.60,141.27 L 84.48,141.20 L 84.32,141.12 L 84.05,141.00 L 83.85,140.95 L 83.62,140.91 L 83.41,140.92 L 83.09,140.96 L 82.92,140.98 L 82.78,141.02 L 82.71,141.04 L 82.67,141.08 L 82.62,141.10 L 82.52,141.12 L 82.41,141.12 L 82.21,141.12 L 82.10,141.13 L 82.01,141.15 L 81.96,141.17 L 81.92,141.21 L 81.85,141.23 L 81.71,141.24 L 81.53,141.25 L 81.22,141.25 L 81.04,141.24 L 80.90,141.23 L 80.83,141.21 L 80.79,141.17 L 80.73,141.15 L 80.61,141.13 L 80.45,141.12 L 80.18,141.12 L 80.02,141.12 L 79.90,141.10 L 79.83,141.08 L 79.79,141.04 L 79.67,141.02 L 79.41,141.01 L 79.06,141.00 L 78.44,141.00 L 78.09,140.99 L 77.83,140.98 L 77.71,140.96 L 77.67,140.92 L 77.62,140.90 L 77.55,140.88 L 77.45,140.88 L 77.30,140.88 L 77.20,140.88 L 77.13,140.90 L 77.08,140.92 L 77.04,140.96 L 77.00,140.98 L 76.94,140.99 L 76.87,141.00 L 76.75,141.00 L 76.67,141.02 L 76.58,141.09 L 76.50,141.17 L 76.38,141.33 L 76.32,141.44 L 76.29,141.56 Z M 76.91,125.59 L 76.84,125.91 L 76.82,126.10 L 76.87,126.29 L 76.96,126.42 L 77.16,126.58 L 77.56,126.67 L 78.40,126.75 L 79.48,126.79 L 81.40,126.83 L 82.48,126.90 L 83.31,127.02 L 83.71,127.18 L 83.91,127.45 L 84.01,127.72 L 84.05,128.14 L 84.04,128.61 L 83.96,129.39 L 83.87,129.85 L 83.72,130.24 L 83.53,130.46 L 83.22,130.66 L 82.79,130.75 L 82.02,130.78 L 81.07,130.75 L 79.43,130.63 L 78.48,130.59 L 77.71,130.63 L 77.28,130.71 L 76.97,130.91 L 76.83,131.06 L 76.80,131.24 L 76.88,131.43 L 77.12,131.70 L 77.55,131.86 L 78.41,131.98 L 79.52,132.04 L 81.48,132.08 L 82.56,132.27 L 83.37,132.70 L 83.71,133.28 L 83.79,134.34 L 83.77,134.95 L 83.65,135.44 L 83.45,135.71 L 83.05,135.91 L 82.58,136.01 L 81.76,136.07 L 80.78,136.08 L 79.09,136.04 L 78.15,136.06 L 77.42,136.16 L 77.08,136.30 L 76.92,136.57 L 76.87,136.75 L 76.88,136.92 L 76.96,137.05 L 77.16,137.20 L 77.55,137.29 L 78.33,137.35 L 79.35,137.38 L 81.15,137.38 L 82.17,137.40 L 82.95,137.46 L 83.34,137.55 L 83.54,137.70 L 83.65,137.87 L 83.74,138.15 L 83.79,138.48 L 83.83,139.02 L 83.90,139.34 L 84.02,139.58 L 84.18,139.71 L 84.45,139.79 L 84.62,139.74 L 84.77,139.54 L 84.88,139.23 L 85.00,138.64 L 85.02,138.22 L 84.98,137.75 L 84.87,137.31 L 84.63,136.69 L 84.55,136.25 L 84.58,135.75 L 84.72,135.31 L 85.03,134.69 L 85.14,134.21 L 85.09,133.62 L 84.90,133.06 L 84.47,132.19 L 84.31,131.64 L 84.32,131.10 L 84.51,130.69 L 84.99,130.18 L 85.24,129.79 L 85.43,129.32 L 85.50,128.85 L 85.50,128.15 L 85.47,127.69 L 85.39,127.23 L 85.29,126.86 L 85.09,126.39 L 84.96,126.11 L 84.82,125.88 L 84.70,125.75 L 84.55,125.63 L 84.10,125.55 L 83.13,125.48 L 81.84,125.41 L 79.53,125.34 L 78.25,125.34 L 77.31,125.43 Z M 76.79,120.67 L 76.83,120.83 L 76.88,120.93 L 76.95,121.04 L 77.05,121.13 L 77.20,121.25 L 77.36,121.31 L 77.59,121.36 L 77.85,121.38 L 78.28,121.38 L 78.56,121.36 L 78.83,121.33 L 79.05,121.29 L 79.32,121.21 L 79.51,121.17 L 79.71,121.14 L 79.88,121.12 L 80.12,121.12 L 80.28,121.14 L 80.45,121.17 L 80.59,121.21 L 80.79,121.29 L 80.94,121.33 L 81.12,121.36 L 81.30,121.38 L 81.57,121.38 L 81.75,121.36 L 81.92,121.33 L 82.05,121.29 L 82.20,121.21 L 82.34,121.17 L 82.52,121.14 L 82.72,121.12 L 83.03,121.12 L 83.22,121.14 L 83.39,121.17 L 83.50,121.21 L 83.62,121.29 L 83.70,121.36 L 83.77,121.45 L 83.84,121.55 L 83.91,121.70 L 83.97,121.87 L 84.03,122.15 L 84.09,122.48 L 84.16,123.02 L 84.23,123.34 L 84.32,123.60 L 84.42,123.75 L 84.58,123.87 L 84.69,123.94 L 84.83,123.98 L 84.96,124.00 L 85.16,124.00 L 85.29,123.98 L 85.41,123.91 L 85.50,123.83 L 85.62,123.67 L 85.69,123.53 L 85.73,123.33 L 85.75,123.11 L 85.75,122.76 L 85.74,122.54 L 85.71,122.32 L 85.66,122.16 L 85.59,121.96 L 85.44,121.78 L 85.15,121.50 L 84.77,121.19 L 84.10,120.68 L 83.44,120.40 L 82.43,120.18 L 81.27,120.08 L 79.35,120.04 L 78.28,120.05 L 77.46,120.09 L 77.08,120.17 L 76.92,120.33 L 76.84,120.44 L 76.80,120.56 Z M 60.23,140.18 L 62.39,164.32 L 63.84,176.58 L 65.38,183.63 L 66.68,183.97 L 68.44,177.78 L 70.27,175.35 L 73.15,175.37 L 76.47,177.82 L 82.03,184.05 L 87.14,187.06 L 94.56,188.48 L 102.71,188.00 L 116.04,185.37 L 123.94,182.26 L 130.71,176.96 L 134.91,170.62 L 138.84,159.76 L 141.93,153.28 L 145.89,147.66 L 149.86,144.10 L 156.01,140.65 L 161.05,139.45 L 167.70,139.85 L 174.55,141.77 L 185.33,146.23 L 192.41,148.59 L 199.67,150.14 L 205.53,150.52 L 213.22,149.98 L 217.83,150.67 L 221.88,152.98 L 224.50,156.41 L 227.13,162.84 L 232.86,166.22 L 244.85,168.41 L 260.50,168.93 L 288.37,168.07 L 303.59,168.41 L 314.44,170.13 L 318.62,172.87 L 318.38,178.13 L 316.93,181.01 L 313.46,183.11 L 308.73,183.96 L 300.15,184.04 L 295.59,184.39 L 292.57,185.21 L 291.74,186.31 L 292.64,188.31 L 293.92,189.12 L 296.30,189.18 L 299.24,188.48 L 304.38,186.64 L 307.31,185.92 L 309.61,185.92 L 310.82,186.64 L 311.56,188.48 L 312.52,188.82 L 314.21,187.83 L 316.28,185.74 L 319.85,181.39 L 321.23,178.20 L 321.18,174.44 L 319.72,170.92 L 316.03,165.71 L 313.14,162.86 L 309.46,160.85 L 305.78,160.09 L 300.10,160.16 L 296.53,160.68 L 293.14,161.91 L 290.66,163.60 L 287.72,166.65 L 283.57,168.25 L 275.97,169.25 L 266.52,169.44 L 250.10,168.93 L 240.62,167.67 L 232.90,164.96 L 228.61,161.38 L 225.39,154.99 L 222.45,151.60 L 218.17,149.35 L 213.47,148.73 L 205.78,149.40 L 199.93,149.06 L 192.70,147.53 L 185.66,145.15 L 174.96,140.60 L 168.08,138.65 L 161.28,138.24 L 156.00,139.44 L 149.38,142.93 L 145.15,146.54 L 141.02,152.24 L 137.88,158.80 L 134.00,169.82 L 129.90,176.21 L 123.33,181.46 L 115.72,184.45 L 102.90,186.80 L 94.73,186.65 L 86.73,183.91 L 80.64,179.16 L 73.11,169.84 L 69.49,164.58 L 67.80,160.55 L 68.39,158.60 L 71.61,157.65 L 73.39,157.42 L 74.71,157.78 L 75.30,158.64 L 75.45,160.48 L 75.98,160.63 L 77.17,159.15 L 78.76,156.37 L 81.62,150.76 L 82.66,148.20 L 82.46,147.29 L 81.06,148.23 L 77.69,151.52 L 75.88,153.02 L 74.65,153.54 L 74.26,152.98 L 74.49,151.02 L 74.23,150.24 L 73.34,150.21 L 72.00,150.93 L 69.50,152.82 L 67.73,153.45 L 65.74,153.19 L 63.96,152.09 L 61.41,149.54 L 60.50,147.90 L 60.73,146.26 L 62.06,144.99 L 65.19,143.38 L 66.44,142.38 L 66.47,141.44 L 65.28,140.77 L 62.22,139.98 L 61.03,139.43 L 61.04,138.82 L 62.26,138.27 L 65.36,137.48 L 66.59,136.94 L 66.62,136.34 L 65.45,135.81 L 62.43,135.07 L 61.25,134.52 L 61.26,133.89 L 62.47,133.31 L 65.53,132.44 L 66.74,131.85 L 66.75,131.20 L 65.57,130.64 L 62.55,129.86 L 61.37,129.28 L 61.39,128.61 L 62.60,127.97 L 65.65,127.03 L 66.87,126.42 L 66.92,125.80 L 65.78,125.31 L 62.84,124.69 L 61.69,124.19 L 61.69,123.56 L 62.84,122.93 L 65.78,121.95 L 66.93,121.31 L 66.92,120.66 L 65.74,120.15 L 62.76,119.48 L 61.22,118.78 L 60.28,117.65 L 60.14,116.35 L 60.73,114.15 L 61.59,112.75 L 63.19,111.38 L 65.19,110.33 L 68.68,109.04 L 70.73,108.63 L 72.45,108.88 L 73.49,109.73 L 74.39,111.65 L 74.86,112.38 L 75.15,112.34 L 75.20,111.52 L 75.05,109.48 L 75.49,108.69 L 76.77,108.72 L 78.61,109.57 L 82.02,111.68 L 83.33,112.43 L 83.25,112.21 L 81.80,111.08 L 78.20,108.42 L 75.43,107.36 L 72.00,107.33 L 68.63,108.33 L 63.49,110.92 L 61.02,116.06 L 59.85,126.56 Z M 67.05,171.80 L 67.20,171.95 L 67.30,172.08 L 67.37,172.23 L 67.42,172.38 L 67.46,172.62 L 67.44,172.95 L 67.37,173.55 L 67.24,174.29 L 67.01,175.58 L 66.85,176.84 L 66.70,178.73 L 66.58,180.86 L 66.42,184.39 L 66.31,186.36 L 66.17,187.83 L 66.04,188.51 L 65.84,188.74 L 65.71,188.87 L 65.57,188.96 L 65.45,189.00 L 65.30,189.00 L 65.16,188.94 L 64.98,188.79 L 64.78,188.57 L 64.47,188.18 L 64.26,187.78 L 64.04,187.15 L 63.87,186.42 L 63.63,185.20 L 63.46,184.24 L 63.26,182.99 L 63.07,181.73 L 62.80,179.77 L 62.65,178.55 L 62.54,177.39 L 62.50,176.55 L 62.50,175.57 L 62.52,174.97 L 62.59,174.42 L 62.67,174.03 L 62.83,173.60 L 62.95,173.32 L 63.10,173.04 L 63.26,172.82 L 63.49,172.55 L 63.68,172.38 L 63.93,172.21 L 64.18,172.08 L 64.57,171.92 L 64.88,171.83 L 65.26,171.75 L 65.64,171.71 L 66.23,171.67 L 66.58,171.67 L 66.87,171.72 Z M 68.58,233.94 L 68.58,234.68 C 71.40,234.62 72.70,234.59 73.64,234.59 C 74.51,234.59 75.68,234.62 76.75,234.65 C 77.49,234.68 78.24,234.68 78.66,234.68 C 82.51,234.68 86.08,233.32 88.51,230.93 C 90.71,228.75 91.84,225.90 91.84,222.41 C 91.84,219.33 90.97,216.80 89.35,215.21 C 87.47,213.37 84.75,212.52 80.54,212.52 L 76.13,212.59 C 72.96,212.62 72.96,212.62 72.73,212.62 C 72.31,212.62 72.31,212.62 67.52,212.52 L 67.52,213.72 L 68.71,213.82 C 70.20,213.95 70.24,214.08 70.27,217.00 L 70.27,231.51 C 70.24,232.67 70.11,233.06 69.62,233.36 Z M 74.84,214.27 C 75.58,214.18 76.07,214.14 76.85,214.14 C 79.11,214.14 81.67,214.57 83.03,215.18 C 83.68,215.50 84.30,215.93 84.85,216.48 C 86.31,217.90 86.99,220.11 86.99,223.31 C 86.99,226.62 86.21,229.05 84.62,230.60 C 83.00,232.19 80.70,232.90 77.04,232.90 C 76.17,232.90 75.65,232.87 74.84,232.74 Z M 120.90,213.72 L 120.90,212.52 L 117.21,212.62 C 116.82,212.62 116.04,212.62 113.49,212.52 L 113.49,213.72 L 114.68,213.82 C 116.17,213.95 116.21,214.08 116.24,217.00 L 116.24,224.80 C 116.24,228.24 115.82,229.95 114.72,231.09 C 113.81,232.03 112.32,232.48 110.15,232.48 C 107.91,232.48 106.46,231.96 105.58,230.89 C 104.74,229.89 104.45,228.37 104.45,225.03 L 104.45,217.00 C 104.45,214.08 104.51,213.95 106.00,213.82 L 107.20,213.72 L 107.20,212.52 C 103.31,212.62 103.31,212.62 102.15,212.62 C 101.01,212.62 100.98,212.62 97.13,212.52 L 97.13,213.72 L 98.32,213.82 C 99.81,213.95 99.85,214.08 99.88,217.00 L 99.88,228.85 C 99.88,232.71 103.38,235.14 108.95,235.14 C 115.17,235.14 118.15,232.32 118.15,226.45 L 118.15,217.00 C 118.15,214.08 118.21,213.95 119.71,213.82 Z M 138.37,212.07 C 130.49,212.07 125.93,216.38 125.93,223.83 C 125.93,231.02 130.17,235.14 137.59,235.14 C 145.33,235.14 149.90,230.76 149.90,223.38 C 149.90,216.22 145.65,212.07 138.37,212.07 Z M 138.04,213.89 C 139.76,213.89 141.12,214.40 142.25,215.54 C 144.03,217.32 145.04,220.36 145.04,224.06 C 145.04,230.15 142.58,233.32 137.85,233.32 C 136.03,233.32 134.70,232.80 133.54,231.64 C 131.76,229.89 130.78,226.81 130.78,223.09 C 130.78,219.75 131.56,217.19 133.05,215.73 C 134.32,214.50 136.00,213.89 138.04,213.89 Z M 198.30,213.72 L 198.30,212.52 C 194.90,212.62 194.90,212.62 194.54,212.62 C 194.18,212.62 194.18,212.62 190.81,212.52 C 189.87,214.76 189.58,215.44 189.23,216.19 L 183.30,228.43 L 178.18,217.74 C 177.82,217.00 177.27,215.83 175.75,212.52 L 171.86,212.62 L 171.70,212.62 L 171.47,212.62 L 170.73,212.62 L 169.63,212.59 L 167.97,212.52 L 167.97,213.72 L 169.17,213.82 C 170.66,213.95 170.70,214.08 170.73,217.00 L 170.73,230.21 C 170.70,233.13 170.66,233.26 169.17,233.39 L 167.97,233.48 L 167.97,234.68 C 170.11,234.62 170.99,234.59 171.73,234.59 C 172.48,234.59 173.29,234.62 175.39,234.68 L 175.39,233.48 L 174.19,233.39 C 172.70,233.26 172.64,233.13 172.64,230.21 L 172.64,216.70 L 180.09,232.22 C 180.32,232.71 180.67,233.48 181.26,234.91 L 182.36,234.91 C 182.97,233.42 183.10,233.10 184.30,230.63 L 190.98,216.74 L 190.98,230.21 C 190.94,232.19 190.91,232.71 190.68,232.93 C 190.49,233.13 190.20,233.23 189.42,233.29 L 188.22,233.39 L 188.22,234.68 C 190.94,234.62 192.11,234.59 193.24,234.59 C 194.41,234.59 195.54,234.62 198.30,234.68 L 198.30,233.39 L 197.10,233.29 C 196.35,233.23 196.06,233.16 195.87,232.97 C 195.61,232.71 195.58,232.25 195.54,230.21 L 195.54,217.00 C 195.58,214.08 195.61,213.95 197.10,213.82 Z M 217.44,227.91 L 218.90,231.61 C 219.03,231.93 219.10,232.25 219.10,232.51 C 219.10,233.00 218.80,233.36 218.45,233.39 L 216.73,233.48 L 216.73,234.68 C 219.52,234.62 221.01,234.59 221.65,234.59 C 222.27,234.59 223.86,234.62 226.77,234.68 L 226.77,233.48 L 226.00,233.39 C 225.09,233.26 224.63,232.90 224.21,231.96 L 215.82,212.36 L 213.52,212.36 C 213.07,213.56 212.75,214.44 212.62,214.79 C 212.16,216.06 211.84,216.90 211.68,217.25 L 205.81,231.44 C 205.26,232.71 204.71,233.32 204.00,233.39 L 203.03,233.48 L 203.03,234.68 C 205.42,234.62 206.62,234.59 206.69,234.59 C 207.01,234.59 207.63,234.59 208.50,234.62 C 208.76,234.65 209.38,234.65 210.35,234.68 L 210.35,233.48 L 208.73,233.39 C 208.18,233.36 207.79,232.90 207.79,232.35 C 207.79,232.12 207.85,231.83 207.95,231.54 L 209.31,227.91 Z M 213.33,217.87 L 216.70,226.10 L 210.09,226.10 Z M 231.63,233.39 L 231.63,234.68 C 234.35,234.62 235.52,234.59 236.65,234.59 C 237.82,234.59 238.95,234.62 241.71,234.68 L 241.71,233.39 L 240.51,233.29 C 239.76,233.23 239.47,233.16 239.28,232.97 C 239.02,232.71 238.99,232.25 238.95,230.21 L 238.95,214.44 C 239.41,214.24 239.99,214.14 240.83,214.14 C 243.75,214.14 245.40,215.63 245.40,218.29 C 245.40,221.01 243.52,222.86 240.80,222.86 L 240.22,222.86 L 239.99,223.44 L 247.25,234.68 L 250.16,234.59 C 251.81,234.62 252.11,234.62 253.30,234.68 L 253.30,233.39 C 252.14,233.16 251.81,232.97 251.04,231.93 L 245.17,223.05 C 246.99,222.31 247.77,221.82 248.64,220.85 C 249.55,219.81 250.00,218.65 250.00,217.29 C 250.00,214.11 247.93,212.52 243.85,212.52 C 243.49,212.52 242.71,212.52 241.61,212.56 C 240.74,212.59 238.11,212.62 237.37,212.62 C 236.46,212.62 236.46,212.62 231.63,212.52 L 231.63,213.72 L 232.83,213.82 C 234.32,213.95 234.35,214.08 234.39,217.00 L 234.39,230.21 C 234.35,232.16 234.32,232.71 234.09,232.93 C 233.90,233.13 233.61,233.23 232.83,233.29 Z M 268.01,213.82 L 268.01,212.52 C 264.13,212.62 264.13,212.62 262.96,212.62 C 261.83,212.62 261.79,212.62 257.94,212.52 L 257.94,213.82 L 259.14,213.92 C 260.66,214.05 260.66,214.05 260.69,217.00 L 260.69,230.21 C 260.66,232.19 260.63,232.71 260.40,232.93 C 260.21,233.13 259.91,233.23 259.14,233.29 L 257.94,233.39 L 257.94,234.68 C 260.66,234.62 261.83,234.59 262.96,234.59 C 264.13,234.59 265.26,234.62 268.01,234.68 L 268.01,233.39 L 266.81,233.29 C 266.07,233.23 265.78,233.16 265.58,232.97 C 265.32,232.71 265.29,232.25 265.26,230.21 L 265.26,217.00 C 265.29,215.05 265.32,214.53 265.55,214.27 C 265.74,214.08 266.04,213.98 266.81,213.92 Z M 280.78,214.50 C 282.53,214.40 283.53,214.37 285.51,214.37 C 287.26,214.37 288.62,214.66 288.65,215.02 L 288.91,217.45 L 290.07,217.45 L 290.53,212.85 L 290.33,212.62 C 289.17,212.52 288.58,212.49 287.26,212.49 C 286.35,212.49 285.44,212.49 283.76,212.56 C 281.62,212.62 280.65,212.62 279.55,212.62 C 278.18,212.62 276.69,212.59 273.46,212.52 L 273.46,213.72 L 274.65,213.82 C 276.14,213.95 276.18,214.08 276.21,217.00 L 276.21,231.51 C 276.21,232.61 276.05,233.06 275.56,233.36 L 274.52,233.94 L 274.52,234.68 C 276.76,234.62 277.67,234.59 278.51,234.59 C 279.09,234.59 279.45,234.59 280.58,234.62 C 282.62,234.68 284.31,234.72 285.80,234.72 C 287.58,234.72 288.52,234.68 290.37,234.59 L 290.53,234.33 L 290.88,229.21 L 289.62,229.21 L 288.88,232.25 C 288.88,232.29 288.84,232.32 288.78,232.35 C 287.71,232.71 286.87,232.80 285.02,232.80 C 283.69,232.80 282.43,232.77 280.78,232.71 L 280.78,224.06 C 281.59,223.99 282.20,223.96 282.95,223.96 L 285.09,223.96 C 286.35,223.99 286.80,224.28 286.93,225.16 L 287.13,226.78 L 288.42,226.78 L 288.32,223.28 C 288.32,223.02 288.36,221.89 288.42,219.81 L 287.13,219.81 L 286.93,221.66 C 286.83,222.21 286.48,222.34 285.09,222.34 L 282.95,222.34 C 281.75,222.34 281.39,222.34 280.78,222.28 Z M 306.24,213.82 L 306.24,212.52 C 302.35,212.62 302.35,212.62 301.19,212.62 C 300.05,212.62 300.02,212.62 296.16,212.52 L 296.16,213.82 L 297.36,213.92 C 298.89,214.05 298.89,214.05 298.92,217.00 L 298.92,231.51 C 298.92,232.61 298.76,233.06 298.27,233.36 L 297.23,233.94 L 297.23,234.68 C 299.47,234.62 300.38,234.59 301.22,234.59 C 301.80,234.59 302.16,234.59 303.29,234.62 C 305.33,234.68 307.02,234.72 308.51,234.72 C 310.29,234.72 311.23,234.68 313.08,234.59 L 313.24,234.33 L 313.59,228.95 L 312.33,228.95 L 311.58,232.25 C 311.58,232.29 311.55,232.32 311.49,232.35 C 310.45,232.71 309.58,232.80 307.73,232.80 C 306.40,232.80 305.14,232.77 303.49,232.71 L 303.49,217.00 C 303.52,215.05 303.55,214.53 303.78,214.27 C 303.97,214.08 304.26,213.98 305.04,213.92 Z" fill="#C6A15B" fill-rule="evenodd"/>
</svg>